# xmcd
#
# Track frame offsets:
#	150
#	21891
#	36616
#	54848
#	68871
#	85847
#	99399
#	115013
#	126075
#	142042
#	156813
#	175798
#	190663
#	202892
#	219568
#	237331
#
# Disc length: 3344 seconds
#
# Revision: 0
# Processed by: cddbd v1.5.2PL0 Copyright (c) Steve Scherf et al.
# Submitted via: audiograbber 1.83.01
#
DISCID=d90d0e10
DTITLE=JOANNA FIELDS - GEE MY NET ROSE
DYEAR=1900
DGENRE=Country
TTITLE0=ICE CREAM DAYS
TTITLE1=KRONKELPAD
TTITLE2=GRANDPA
TTITLE3=GEE MY NET ROSE
TTITLE4=I KNOW THIS TOWN
TTITLE5=DIE LAASTE DANS
TTITLE6=ONE OF THOSE THINGS
TTITLE7=ALWAYS
TTITLE8=SILVER MAAN
TTITLE9=CRYSTAL CHANDELIERS
TTITLE10=TAKE IT LIKE A MAN
TTITLE11=DIE REFREIN VAN DIE LIEFDE
TTITLE12=57 CHEVROLET
TTITLE13=MET LIEFDE KAN ONS WONDERE DOEN
TTITLE14=LOVE CAN BUILD A BRIDGE
TTITLE15=FLY
EXTD=
EXTT0=
EXTT1=
EXTT2=
EXTT3=
EXTT4=
EXTT5=
EXTT6=
EXTT7=
EXTT8=
EXTT9=
EXTT10=
EXTT11=
EXTT12=
EXTT13=
EXTT14=
EXTT15=
PLAYORDER=
